<?xml version="1.0" encoding="utf-8"?>
<!-- Generator: Adobe Illustrator 25.2.0, SVG Export Plug-In . SVG Version: 6.00 Build 0)  -->
<svg version="1.1" id="Layer_1" xmlns="http://www.w3.org/2000/svg" xmlns:xlink="http://www.w3.org/1999/xlink" x="0px" y="0px"
	 viewBox="0 0 241.55 57.2" style="enable-background:new 0 0 241.55 57.2;" xml:space="preserve">
<style type="text/css">
	.st0{fill:#842A1A;}
	.st1{fill:#F8E1CA;}
	.st2{fill:#E8218F;}
	.st3{fill:#FCFAFC;}
	.st4{fill:#473D16;}
	.st5{fill:#F58020;}
	.st6{fill:#2BADDF;}
	.st7{fill:#DEF1F4;}
	.st8{fill:#F9ECE1;}
	.st9{fill:#24150B;}
	.st10{fill:#E8CD2B;}
	.st11{fill:#08BAB9;}
	.st12{fill:#494531;}
	.st13{fill:#B0E1F1;}
</style>
<g>
	<path class="st0" d="M34.8,1.09L49.45,13.8c0,0,17.06,33.57,18.4,33.45c0,0,3.97,2.58-0.61-6.71c-2.08-4.22-2.76-6.15-2.76-6.15
		l7.4,12.5c0,0,1.23,1.65,2.13,1.23c0.68-0.32,0.95,0.03,0.33-2.33S66.4,28.61,66.4,28.61l11.22,17.45c0,0,2.33,1.91,2.3-0.83
		c-0.03-2.74-9.69-19.46-9.69-19.46s9.11,12.95,10.26,14.61c0.92,1.34,3.01,0.82,2.6-0.49c-0.41-1.31-0.85-2.56-9.04-18.06
		c0,0,0.95,0.12,2.36,0.43c1.47,0.33,6.31,1.33,6.31,1.33s3.51,1.14,2.4-1.32c-1.1-2.46-9.58-6.81-12.24-9.09
		c-2.66-2.28-7.84-5.26-7.84-5.26l-3.86-6.83H34.8z"/>
	<path class="st1" d="M44.55,57.07l14.8-10.72c0,0,34.06-16.06,33.98-17.4c0,0,2.7-3.9-6.73,0.42c-4.28,1.96-6.23,2.58-6.23,2.58
		l12.71-7.03c0,0,1.69-1.18,1.29-2.09c-0.3-0.69,0.05-0.95-2.32-0.4s-17.4,7.43-17.4,7.43l17.78-10.7c0,0,1.98-2.28-0.76-2.33
		c-2.74-0.05-19.74,9.11-19.74,9.11s13.21-8.72,14.91-9.82c1.36-0.88,0.91-2.99-0.41-2.61c-1.33,0.38-2.58,0.78-18.32,8.51
		c0,0,0.14-0.95,0.5-2.35c0.37-1.46,1.52-6.26,1.52-6.26s1.25-3.47-1.25-2.44s-7.09,9.37-9.44,11.97c-2.36,2.59-5.49,7.68-5.49,7.68
		L32.81,41.78L6.31,57.07H44.55z"/>
	<polygon class="st2" points="39.34,33.24 57.19,53.19 51.98,57.07 4.09,56.74 	"/>
	<circle class="st3" cx="37.9" cy="40.44" r="2.33"/>
	<circle class="st3" cx="45.55" cy="51.97" r="2.33"/>
	<circle class="st3" cx="34.58" cy="50.42" r="2.33"/>
	<circle class="st3" cx="22.05" cy="50.09" r="2.33"/>
	<path class="st4" d="M68.07,44.6L66.6,57.07c3.43-0.04,9.63-0.09,13.05,0c2.72,0.07,5.54-0.26,8.23,0l-1.45-9.09
		c0,0,3.58-37.49,2.38-38.1c0,0-1.97-4.31-3.08,6c-0.5,4.68-0.97,6.67-0.97,6.67l0.44-14.52c0,0-0.15-2.05-1.14-2.18
		c-0.75-0.09-0.79-0.53-1.53,1.79c-0.74,2.32-2.49,18.75-2.49,18.75L79.92,5.64c0,0-0.95-2.86-2.39-0.53s-2.24,21.62-2.24,21.62
		S74.53,10.92,74.45,8.9c-0.07-1.62-2.1-2.31-2.46-0.98c-0.35,1.33-0.65,2.62-2.04,20.09c0,0-0.74-0.61-1.76-1.63
		c-1.07-1.07-4.61-4.5-4.61-4.5s-2.35-2.84-2.74-0.17c-0.39,2.67,4.44,10.88,5.47,14.23C67.34,39.29,68.07,44.6,68.07,44.6z"/>
	<path class="st5" d="M237.42,57.07c0,0-61.27-15.42-81.47-20.06S98.03,24.88,98.03,24.88s-34.65-14.75-35.6-13.79
		c0,0-4.7,0.58,4.79,4.75c4.31,1.89,6.07,2.94,6.07,2.94l-13.71-4.81c0,0-2-0.47-2.42,0.43c-0.31,0.68-0.75,0.59,1.24,2
		c1.99,1.41,17.12,8.04,17.12,8.04l-19.82-6.15c0,0-3.02,0.04-1.23,2.12c1.79,2.08,19.93,8.68,19.93,8.68s-15.3-4.06-17.25-4.59
		c-1.57-0.43-2.84,1.31-1.68,2.05c1.16,0.74,2.3,1.41,18.54,8.02c0,0-0.8,0.52-2.09,1.19c-1.34,0.69-5.69,3.04-5.69,3.04
		s-3.42,1.38-0.99,2.56c2.43,1.17,11.71-0.95,15.22-0.91c3.51,0.04,9.39-1.01,9.39-1.01l22.41,8.32l34.92,9.34H237.42z"/>
	<polygon class="st6" points="133.56,29.14 121.48,52.53 136.44,57.07 241.08,57.07 	"/>
	<polygon class="st7" points="131.35,33.57 221.57,57.07 208.16,57.07 129.61,36.88 	"/>
	<polygon class="st7" points="126.76,42.39 179.53,57.02 168,57.02 124.88,46.16 	"/>
	<polygon class="st8" points="119.39,27.92 108.6,47.77 115.69,50.06 126.05,29.55 	"/>
	<path class="st8" d="M113.39,32.06l-3.49,6.43c0,0-0.79,1.13-0.22,1.42c1.09,0.55,10.36,3.71,10.36,3.71s0.98,0.22,1.42-0.44
		c0.44-0.65,4.25-7.96,4.25-7.96s0.55-1.3-0.65-1.74c-0.74-0.28-10.03-3.05-10.03-3.05S114.21,30.25,113.39,32.06z"/>
	<path class="st9" d="M114.29,32.99l-2.76,5.06c0,0-0.62,0.89-0.17,1.12c0.86,0.43,8.18,2.92,8.18,2.92s0.78,0.17,1.12-0.34
		s3.36-6.26,3.36-6.26s0.44-1.02-0.52-1.37c-0.59-0.22-7.92-2.4-7.92-2.4S114.93,31.57,114.29,32.99z"/>
	<polygon class="st7" points="144.54,32.44 132,55.68 136.44,57.07 149.27,33.07 	"/>
	<polygon class="st7" points="163.01,37.33 151.96,57.07 157.01,57.07 167.9,38.59 	"/>
	<polygon class="st7" points="181.47,42.69 172.95,57.07 177.05,57.07 186.21,43.48 	"/>
	<polygon class="st7" points="201.36,47.59 196.62,57.07 201.52,57.07 206.25,48.69 	"/>
	<path class="st10" d="M114.61,1.31L91.77,12.4c0,0-36.8,7.98-37.02,9.31c0,0-3.5,3.19,6.65,1.11c4.61-0.94,6.65-1.11,6.65-1.11
		L54.08,25.7c0,0-1.91,0.77-1.73,1.75c0.14,0.74-0.27,0.91,2.17,0.91s18.62-3.33,18.62-3.33l-19.73,6.43c0,0-2.44,1.77,0.22,2.44
		c2.66,0.67,21.28-4.43,21.28-4.43s-14.84,5.52-16.74,6.22c-1.53,0.56-1.56,2.71-0.19,2.64c1.38-0.07,2.69-0.18,19.76-4.17
		c0,0-0.35,0.89-1.02,2.18c-0.69,1.34-2.89,5.76-2.89,5.76s-2,3.1,0.67,2.66s9.01-7.54,11.89-9.53s7.08-6.25,7.08-6.25l23.1-6.15
		l60.3-21.28L114.61,1.31z"/>
	<path class="st11" d="M173.32,1.08c-0.06,0-0.11,0.01-0.17,0.01c-0.06,0-0.11-0.01-0.16-0.01l-3.09,0.01c-0.01,0-0.03,0-0.04,0
		c-0.01,0-0.02,0-0.04,0l-14.95,0.03c-0.19,0.02-0.39,0.03-0.59,0.03c-0.19,0-0.38-0.01-0.57-0.03L111.26,1.2l-8.34,4.52L113.8,25.5
		c0,0,50.15-16.25,64.71-21.9l6.5-2.54L173.32,1.08z"/>
	<polygon class="st12" points="105.72,4.17 107.96,2.99 120.21,23.42 117.62,24.25 	"/>
	<polygon class="st13" points="108.36,2.73 120.67,23.23 122.06,22.82 109.67,2.06 	"/>
	<path class="st12" d="M118.92,1.15c-0.2,0.02-2.83,0.02-3.03,0l11.79,19.75l2.59-0.83L118.92,1.15z"/>
	<path class="st13" d="M121.45,1.18c-0.18,0.02-1.67,0.01-1.75,0.03l11.32,18.65l1.39-0.42L121.45,1.18z"/>
	<path class="st12" d="M130.99,1.16c-0.19-0.01-2.73,0.07-3.08,0l9.81,16.44l2.59-0.83L130.99,1.16z"/>
	<path class="st13" d="M133.38,1.05c-0.65,0.07-1.15,0.06-1.7,0.11l9.38,15.4l1.39-0.42L133.38,1.05z"/>
	<path class="st12" d="M143.47,1.09c-0.09-0.03-2.75,0.09-2.97,0.11l7.73,12.93l2.59-0.83L143.47,1.09z"/>
	<path class="st13" d="M146.01,1.02c-0.32,0.06-1.44,0.08-1.65,0.05l7.21,12.01l1.39-0.42L146.01,1.02z"/>
	<path class="st12" d="M155.96,1.09c-0.69,0.06-1.95,0.08-2.97,0.04l5.57,9.44l2.59-0.83L155.96,1.09z"/>
	<path class="st13" d="M158.42,1.01c-0.36,0.08-1.66,0.08-1.81,0.07l5.28,8.44l1.39-0.42L158.42,1.01z"/>
	<path class="st12" d="M164.89,1.13l3.26,6.21l2.41-0.89l-2.63-5.39C167.76,1.01,165.19,1.2,164.89,1.13z"/>
	<path class="st13" d="M169.14,1.14c-0.09,0-0.18-0.01-0.26-0.02l2.44,5.08l1.86-0.63l-2.65-4.44c-0.35,0.12-0.8-0.01-1.21,0.01
		C169.26,1.14,169.2,1.14,169.14,1.14z"/>
</g>
</svg>
